<svg width="32" height="32" fill="none" xmlns="http://www.w3.org/2000/svg"><path d="M27.09 5.54a26.39 26.39 0 00-6.514-2.02.099.099 0 00-.105.05c-.281.5-.593 1.153-.81 1.666a24.362 24.362 0 00-7.317 0 16.863 16.863 0 00-.823-1.666.103.103 0 00-.105-.05 26.315 26.315 0 00-6.513 2.02.093.093 0 00-.043.037C.71 11.775-.425 17.821.132 23.791a.11.11 0 00.042.075 26.54 26.54 0 007.99 4.04.104.104 0 00.113-.038A18.959 18.959 0 009.91 25.21a.101.101 0 00-.055-.14c-.87-.33-1.7-.733-2.496-1.19a.103.103 0 01-.01-.17c.167-.126.335-.257.495-.389a.099.099 0 01.104-.014c5.237 2.391 10.906 2.391 16.082 0a.099.099 0 01.104.013c.16.132.328.264.497.39a.103.103 0 01-.009.17 16.4 16.4 0 01-2.497 1.188.102.102 0 00-.054.142c.48.931 1.029 1.817 1.633 2.658.025.036.07.05.113.038a26.451 26.451 0 008.003-4.039.103.103 0 00.041-.074c.667-6.902-1.117-12.898-4.731-18.213a.082.082 0 00-.042-.039zM10.692 20.156c-1.576 0-2.875-1.448-2.875-3.226 0-1.777 1.273-3.225 2.875-3.225 1.615 0 2.901 1.46 2.876 3.225 0 1.778-1.274 3.226-2.876 3.226zm10.633 0c-1.576 0-2.875-1.448-2.875-3.226 0-1.777 1.273-3.225 2.875-3.225 1.615 0 2.901 1.46 2.876 3.225 0 1.778-1.261 3.226-2.876 3.226z" fill="#000"/></svg>