<svg width="44" height="24" fill="none" xmlns="http://www.w3.org/2000/svg"><rect x=".5" y=".5" width="43" height="23" rx="7.5" stroke="#000"/><path d="M27.367 11.333H16.633a.633.633 0 00-.633.633v.067c0 .35.284.633.633.633h10.734c.35 0 .633-.283.633-.633v-.067a.633.633 0 00-.633-.633zM27.367 14.667H16.633A.633.633 0 0016 15.3v.067c0 .35.284.633.633.633h10.734c.35 0 .633-.283.633-.633V15.3a.633.633 0 00-.633-.633zM27.367 8H16.633a.633.633 0 00-.633.633V8.7c0 .35.284.633.633.633h10.734c.35 0 .633-.283.633-.633v-.067A.633.633 0 0027.367 8z" fill="#000"/></svg>